<svg version="1.1" id="Layer_1" xmlns="http://www.w3.org/2000/svg" xmlns:xlink="http://www.w3.org/1999/xlink" x="0px" y="0px"
    viewBox="0 0 64 64" width="100px" height="100px" xml:space="preserve" class="frm-status-collecting-feedback">

 <g>
  <title>Layer 1</title>
  <path transform="rotate(0.200832 85.3372 59.7143)" stroke="null" d="m81.02721,59.04717l1.53633,0c0.17314,0 0.31553,0.14238 0.31553,0.31729l0,4.20996c0,0.17402 -0.14238,0.31729 -0.31553,0.31729l-1.53633,0c-0.17402,0 -0.31641,-0.14238 -0.31641,-0.31729l0,-4.20996c0,-0.1749 0.14238,-0.31729 0.31641,-0.31729zm4.23018,-3.15791c0.16611,-0.84551 1.55127,-0.0668 1.64268,1.29639c0.02725,0.41748 -0.01582,0.90264 -0.11777,1.44492l1.97842,0c0.82354,0.03164 1.5416,0.62139 1.03359,1.58906c0.11602,0.42188 0.13271,0.9167 -0.18018,1.11182c0.03867,0.66533 -0.14502,1.07754 -0.49043,1.40361c-0.02197,0.33311 -0.09316,0.62842 -0.254,0.85605c-0.26543,0.37529 -0.48076,0.28564 -0.9,0.28564l-3.34072,0c-0.52998,0 -0.81826,-0.1459 -1.16543,-0.58008l0,-3.72129c0.99668,-0.26895 1.52578,-1.63213 1.79385,-2.52598l0,-1.16016z" fill="#fff"/>
  <g stroke="null">
   <g stroke="null">
    <path stroke="null" fill="#bdc3c7" d="m39.67917,13.91961c5.81474,0 10.88763,0.04909 16.69691,0.04909c0.66548,0 1.29822,0.06 1.91461,0.17455c0.61093,0.11455 1.20004,0.28365 1.74551,0.5182c0.55093,0.23455 1.08549,0.52365 1.60369,0.87276c0.50729,0.34365 0.99276,0.7473 1.45096,1.20004c0.4582,0.4582 0.86185,0.94367 1.20004,1.45096c0.3491,0.51274 0.64366,1.05276 0.87276,1.60369c0.2291,0.55093 0.40365,1.13458 0.5182,1.74551c0.11455,0.61638 0.17455,1.25459 0.17455,1.91461l0,19.23881c0,0.66548 -0.06,1.29822 -0.17455,1.91461c-0.11455,0.61638 -0.2891,1.20004 -0.5182,1.74551c-0.23455,0.55638 -0.52365,1.09094 -0.87276,1.60369c-0.34365,0.50729 -0.7473,0.99276 -1.20004,1.45096l-0.00545,0.00545c-0.47456,0.46365 -0.96549,0.8673 -1.47823,1.20549c-0.50729,0.34365 -1.04731,0.63275 -1.59823,0.8673c-0.55093,0.2291 -1.12913,0.40365 -1.74006,0.5182c-0.60547,0.11455 -1.24368,0.17455 -1.89824,0.17455l-7.25478,0c-0.2291,0 -0.45274,0.05455 -0.66002,0.15273c-0.19092,0.09819 -0.36547,0.23455 -0.49638,0.41456l-0.01091,0.01091c-0.57275,0.75821 -1.17277,1.49459 -1.80551,2.20916c-0.63275,0.70366 -1.28731,1.39095 -1.99643,2.04007c-0.6873,0.6382 -1.40732,1.24913 -2.15462,1.83824c-0.7473,0.58911 -1.52187,1.14004 -2.3128,1.66369c-0.75821,0.50183 -1.56005,0.9764 -2.39462,1.42914c-0.82366,0.44729 -1.66915,0.86185 -2.52554,1.24368c-0.09819,0.04364 -0.20182,0.03818 -0.29456,-0.01636c-0.15819,-0.09273 -0.21819,-0.29456 -0.12546,-0.4582c0.15273,-0.27274 0.30001,-0.54002 0.45274,-0.82912c0.14182,-0.26728 0.27274,-0.53456 0.39819,-0.82366l0,0c0.24546,-0.54547 0.48002,-1.10185 0.6982,-1.68005c0.2291,-0.5782 0.44183,-1.1564 0.64911,-1.75642c0.19637,-0.55638 0.37638,-1.13458 0.55093,-1.71824c0.17455,-0.58366 0.33819,-1.17277 0.49638,-1.76188c0.04364,-0.17455 0.08728,-0.3491 0.08728,-0.52911c0,-0.39274 -0.15819,-0.75821 -0.42001,-1.02003l-0.01636,-0.01636c-0.26728,-0.26728 -0.6382,-0.43638 -1.0364,-0.43638l-8.44391,0c-0.66548,0 -1.29277,-0.06 -1.89824,-0.17455c-0.60002,-0.11455 -1.17277,-0.2891 -1.71824,-0.51274l-0.01091,-0.00545c-0.54002,-0.21273 -1.06913,-0.50183 -1.57096,-0.84003c-0.5182,-0.3491 -1.02549,-0.76912 -1.5055,-1.23822l-0.00545,-0.00545c-0.4582,-0.4582 -0.86185,-0.93821 -1.20549,-1.45096c-0.3491,-0.51274 -0.6382,-1.04731 -0.87276,-1.60369c-0.2291,-0.55093 -0.40365,-1.13458 -0.5182,-1.74551c-0.11455,-0.61638 -0.17455,-1.25459 -0.17455,-1.91461l0,-3.91104c0,-1.9637 -2.5419,-1.98006 -2.96737,-0.5782l0,4.46196c0,0.84003 0.08182,1.65824 0.2291,2.44372c0.15273,0.80184 0.38183,1.57642 0.6873,2.32917c0.29456,0.72548 0.67639,1.42914 1.12913,2.10007c0.4582,0.67093 0.98731,1.30913 1.59278,1.91461c0.60002,0.60547 1.24368,1.13458 1.91461,1.59278c0.66548,0.45274 1.36368,0.82912 2.08916,1.12367l0.01091,0.00545c0.7473,0.30546 1.52732,0.52911 2.32371,0.6873c0.78548,0.14728 1.60369,0.2291 2.44372,0.2291l6.06565,0c0.03818,0 0.08182,0.00545 0.11455,0.01636c0.17455,0.06 0.27274,0.24546 0.21819,0.42001l-0.00545,0.01091c-0.11455,0.37092 -0.23455,0.74184 -0.36547,1.14004l-0.00545,0.02182c-0.18546,0.53456 -0.39274,1.08549 -0.61093,1.63096c-0.20728,0.51274 -0.42001,1.02549 -0.64366,1.51096c-0.00545,0.02727 -0.01091,0.04909 -0.02182,0.07637c-0.21819,0.49638 -0.46911,0.98185 -0.75821,1.46732c-0.2891,0.48547 -0.61093,0.95458 -0.96003,1.42368c-0.36001,0.46911 -0.76366,0.93821 -1.21095,1.41823l-0.01636,0.02182c-0.45274,0.48002 -0.93821,0.94912 -1.46732,1.40732c-0.30001,0.27274 -0.46911,0.64366 -0.49093,1.01458c-0.02182,0.37092 0.10364,0.75275 0.37092,1.05822c0.19092,0.21273 0.42547,0.35456 0.68184,0.43092c0.25637,0.07637 0.52911,0.08728 0.79093,0.01091c1.10185,-0.29456 2.18734,-0.62184 3.24011,-0.98185c1.05276,-0.36001 2.0728,-0.75275 3.04919,-1.17822c0.98731,-0.42547 1.95279,-0.88912 2.88555,-1.39641c0.9273,-0.49638 1.83279,-1.04185 2.70009,-1.6146l0,0c0.8673,-0.56184 1.70187,-1.16186 2.51463,-1.80006c0.81275,-0.6382 1.59278,-1.30368 2.34008,-2.00188l0.01636,-0.01636c0.63275,-0.59456 1.24368,-1.22186 1.83824,-1.87097c0.60002,-0.66002 1.17822,-1.33641 1.71824,-2.02916c0.06,-0.09273 0.16364,-0.15273 0.28365,-0.15273l6.38203,0c0.85639,0 1.6746,-0.08182 2.46554,-0.2291c0.79639,-0.15273 1.56005,-0.38183 2.29098,-0.68184l0.01091,-0.00545c0.73639,-0.31092 1.44005,-0.69275 2.11098,-1.14549c0.67093,-0.45274 1.30368,-0.97094 1.90915,-1.57642c0.60547,-0.60547 1.13458,-1.24913 1.59278,-1.91461c0.45274,-0.67093 0.83457,-1.37459 1.12913,-2.10007c0.30001,-0.73639 0.52911,-1.5055 0.6873,-2.30735c0.14728,-0.78548 0.2291,-1.60914 0.2291,-2.46554l0,-19.24972c0,-0.85639 -0.08182,-1.68005 -0.2291,-2.46554c-0.15273,-0.80184 -0.38183,-1.57096 -0.6873,-2.30189c-0.30001,-0.72548 -0.68184,-1.43459 -1.12913,-2.10007c-0.4582,-0.67639 -0.98731,-1.31459 -1.58732,-1.91461c-0.60547,-0.60547 -1.24368,-1.13458 -1.91461,-1.59278c-0.66548,-0.45274 -1.36368,-0.82912 -2.08916,-1.12367l-0.01091,-0.00545c-0.75275,-0.30001 -1.52732,-0.52911 -2.32917,-0.68184c-0.78548,-0.14728 -1.60369,-0.2291 -2.44372,-0.2291c-6.03838,0 -11.34037,-0.02727 -17.3842,-0.02727c-1.44005,0.41456 -1.53278,2.96192 0.67639,2.96192l0,0l0,0zm-8.6021,29.64097c-0.76912,0.01091 -1.39641,-0.60547 -1.40732,-1.37459c-0.01091,-0.76912 0.60547,-1.39641 1.37459,-1.40732l14.74412,-0.22364l2.82555,-0.18001c0.76912,-0.04909 1.42914,0.53456 1.47823,1.29822c0.04909,0.76912 -0.53456,1.42914 -1.29822,1.47823l-2.82555,0.18001c0,0 -13.64772,0.20728 -14.8914,0.2291l0,0l0,0zm4.41833,-8.73847c-0.76912,0 -1.39641,-0.62729 -1.39641,-1.39641c0,-0.76912 0.62729,-1.39641 1.39641,-1.39641l19.9152,0c0.76912,0 1.39641,0.62729 1.39641,1.39641c0,0.76912 -0.62729,1.39641 -1.39641,1.39641l-19.9152,0l0,0l0,0zm6.19657,-8.33482c-0.76912,0 -1.39641,-0.62729 -1.39641,-1.39641c0,-0.76912 0.62729,-1.39641 1.39641,-1.39641l13.71318,0c0.76912,0 1.39641,0.62729 1.39641,1.39641c0,0.76912 -0.62729,1.39641 -1.39641,1.39641l-13.71318,0l0,0l0,0z" class="st0"/>
    <path stroke="null" fill="#35A872" clip-rule="evenodd" fill-rule="evenodd" d="m16.73114,2.91744c0.15819,-0.81821 0.58366,-1.34186 1.16186,-1.60914c0.46911,-0.21273 1.00912,-0.24001 1.58187,-0.08728c0.49093,0.13091 1.00912,0.39274 1.51096,0.77457c1.34732,1.02003 2.60736,2.95646 2.76554,5.36745c0.04909,0.74184 0.03273,1.53278 -0.03273,2.37826c-0.04364,0.55638 -0.12,1.14004 -0.21273,1.75097l5.72201,0l0.01091,-0.00545c0.93276,0.03273 1.82733,0.26183 2.59099,0.66002c0.66002,0.34365 1.21095,0.81275 1.59278,1.40186c0.39274,0.60547 0.61093,1.32004 0.5782,2.13825c-0.02727,0.60547 -0.18546,1.2655 -0.5182,1.97461c0.19092,0.79093 0.27819,1.64187 0.15273,2.38917c-0.10364,0.63275 -0.3491,1.19458 -0.79093,1.6146c0.02727,1.04731 -0.11455,1.92552 -0.39819,2.68372c-0.2891,0.78003 -0.72002,1.42914 -1.28186,2.00188c-0.04909,0.50183 -0.13091,0.98185 -0.25637,1.42914c-0.15819,0.56184 -0.38729,1.08004 -0.71457,1.53278l0,0c-0.9764,1.37459 -1.75642,1.34732 -2.98919,1.29277c-0.1691,-0.00545 -0.36001,-0.01636 -0.64366,-0.01636l-11.18764,0c-1.00912,0 -1.80006,-0.14182 -2.52008,-0.50729c-0.72002,-0.36001 -1.3255,-0.90548 -1.98006,-1.72369l-0.1691,-0.47456l0,-13.05861l0.56729,-0.15273c1.4455,-0.38729 2.58008,-1.62551 3.46375,-3.09828c0.90548,-1.52187 1.54369,-3.30011 1.98006,-4.7347l0,-3.78012l0.01636,-0.14182l0,0l0,0l0,0zm-13.53862,10.54944l5.06198,0c0.63275,0 1.14549,0.5182 1.14549,1.14549l0,15.25141c0,0.63275 -0.5182,1.14549 -1.14549,1.14549l-5.06198,0c-0.63275,0 -1.14549,-0.5182 -1.14549,-1.14549l0,-15.25141c0,-0.63275 0.51274,-1.14549 1.14549,-1.14549l0,0l0,0l0,0z" class="st1"/>
   </g>
  </g>
 </g>
</svg>