<svg version="1.1" id="Layer_1" xmlns="http://www.w3.org/2000/svg" xmlns:xlink="http://www.w3.org/1999/xlink" x="0px" y="0px"
    viewBox="0 0 64 64" width="100px" height="100px" xml:space="preserve" class="frm-status-dept-accepted">
        <rect x="18.9" y="13.3" fill="#BDC3C7" width="6.6" height="6.4"></rect>
        <rect x="18.9" y="24.9" fill="#BDC3C7" width="6.6" height="6.4"></rect>
        <rect x="18.9" y="36.6" fill="#BDC3C7" width="6.6" height="6.4"></rect>
        <rect x="46" y="39.5" fill="#BDC3C7" width="3.9" height="3.8"></rect>
        <rect x="46" y="46.4" fill="#BDC3C7" width="3.9" height="3.8"></rect>
        <path fill="#BDC3C7" d="M55.4,33.1v26.7h-5.5v-5.4H46v5.4h-5.5V31c-1.7-1.1-3.1-2.6-4.3-4.2v33H25.5V49.1h-6.6v10.6H8.2V11.5l28.1-4.4
        l0,0c1.4-2,3.2-3.6,5.3-4.9c-0.5-1.6-2.1-2.6-3.7-2.3l-32.3,5C3.7,5.4,2.4,7.1,2.7,9c0.1,0.9,0.6,1.6,1.2,2.1v50.8
        C4,63,4.9,64,6.1,64h32.3h19.1c1.2,0,2.1-1,2.1-2.1v-31C58.4,31.8,56.9,32.5,55.4,33.1z"></path>
        <path fill="#BDC3C7" d="M46,33.4v3h3.9v-2.5C48.6,33.9,47.3,33.7,46,33.4z"></path>
        <path fill="#46C87D" d="M60,7.5c-5.2-5.2-13.7-5.2-19,0c-5.2,5.2-5.2,13.7,0,19c5.2,5.2,13.7,5.2,19,0C65.2,21.2,65.2,12.8,60,7.5z
        M58.6,14.7L50.3,23c-0.6,0.6-1.7,0.6-2.3,0c-0.1-0.1-4.1-4.2-4.1-4.2c-0.6-0.6-0.6-1.7,0-2.3c0.6-0.6,1.7-0.6,2.3,0l3,3l7.1-7.1
        c0.6-0.6,1.7-0.6,2.3,0C59.2,13,59.2,14.1,58.6,14.7z"></path>
</svg>