<svg width="64" height="64" xmlns="http://www.w3.org/2000/svg" class="frm-status-completed" xml:space="preserve" version="1.1">
 <g>
  <title>Layer 2</title>
  <g id="svg_6">
   <title>Layer 1</title>
   <circle fill="#ffffff" id="svg_1" r="25.07022" cy="32.26807" cx="31.92448" class="cls-1"/>
   <path fill="#ff5656" id="svg_2" d="m32.00028,59.00964a26.74157,26.74157 0 1 1 26.74157,-26.74157a26.74157,26.74157 0 0 1 -26.74157,26.74157zm0,-50.14045a23.39888,23.39888 0 1 0 23.39888,23.39888a23.39888,23.39888 0 0 0 -23.39888,-23.39888z" class="cls-2"/>
   <path fill="#ffaaaa" id="svg_3" d="m43.23175,21.0366a3.34269,3.34269 0 0 0 -4.72992,0l-6.50155,6.50155l-6.50155,-6.50155a3.34269,3.34269 0 0 0 -4.72992,4.72992l6.50155,6.50155l-6.50155,6.50155a3.34269,3.34269 0 0 0 4.72992,4.72992l6.50155,-6.50155l6.50155,6.50155a3.34269,3.34269 0 0 0 4.72992,-4.72992l-6.50155,-6.50155l6.50155,-6.50155a3.34269,3.34269 0 0 0 0,-4.72992z" class="cls-3"/>
   <path fill="#ff5656" id="svg_4" d="m40.86678,46.1486a5.01404,5.01404 0 0 1 -3.55162,-1.47079l-5.31489,-5.31489l-5.31489,5.31489a5.01404,5.01404 0 1 1 -7.09487,-7.09487l5.31489,-5.31489l-5.31489,-5.31489a5.01404,5.01404 0 1 1 7.09487,-7.09487l5.31489,5.31489l5.31489,-5.31489a5.01404,5.01404 0 1 1 7.09487,7.09487l-5.31489,5.31489l5.31489,5.31489a5.01404,5.01404 0 0 1 -3.54325,8.56566zm-8.86651,-10.82197c0.94432,0 0.62675,-0.06685 7.67984,6.98624a1.67135,1.67135 0 0 0 2.858,-1.17831c0,-0.96938 -0.12534,-0.83567 -6.99459,-7.6882a1.67135,1.67135 0 0 1 0,-2.35659l6.48483,-6.50155a1.67135,1.67135 0 1 0 -2.34825,-2.34825l-6.50155,6.50155a1.67135,1.67135 0 0 1 -2.35659,0l-6.50155,-6.50155a1.67135,1.67135 0 0 0 -2.34825,0a1.67135,1.67135 0 0 0 0,2.36496l6.50155,6.50155a1.67135,1.67135 0 0 1 0,2.35659c-7.17845,7.17845 -6.99459,6.75225 -6.99459,7.6882a1.67135,1.67135 0 0 0 2.84129,1.14487c7.15336,-7.13665 6.74388,-6.96952 7.67984,-6.96952l0.00002,0z" class="cls-2"/>
  </g>
 </g>

</svg>