<svg width="64" height="64" xmlns="http://www.w3.org/2000/svg" class="frm-status-completed" xml:space="preserve" version="1.1">
 <!-- <path fill="#57BD7B" d="M43.6,27.8c-0.9-0.9-2.5-0.9-3.4,0L29.6,38.4l-4.5-4.5c-0.9-0.9-2.5-0.9-3.4,0l0,0c-0.9,0.9-0.9,2.5,0,3.4
        c0,0,6,6.1,6.1,6.3c0.9,0.9,2.5,0.9,3.4,0l12.4-12.4C44.5,30.3,44.5,28.7,43.6,27.8z"></path> -->

 <g>
  <title>Layer 1</title>
  <path id="svg_1" d="m53.6,5.5l-7.5,0c1,1.2 1.7,2.8 1.8,4.5l3.4,0l0,49.5l-38.6,0l0,-49.5l3.4,0c0.1,-1.7 0.8,-3.3 1.8,-4.5l-7.5,0c-1.2,0 -2.2,1 -2.2,2.3l0,54c0,1.2 1,2.3 2.2,2.3l43.1,0c1.2,0 2.3,-1 2.3,-2.3l0,-54c0,-1.3 -1,-2.3 -2.2,-2.3z" fill="#BDC3C7"/>
  <path id="svg_2" d="m23.8,15.9l16.4,0c2.8,0 5.1,-2.3 5.1,-5.1l0,-0.3c0,-0.2 0,-0.3 0,-0.5c-0.2,-2.3 -2.1,-4.2 -4.4,-4.5c-0.2,0 -0.4,-0.1 -0.7,-0.1l-2.2,0l0,-0.3c0,-2.8 -2.3,-5.1 -5.1,-5.1l-1.9,0c-2.7,0 -5,2.3 -5,5.1l0,0.4l-2.2,0c-0.2,0 -0.5,0 -0.7,0.1c-2.3,0.2 -4.1,2.1 -4.3,4.4c0,0.2 0,0.3 0,0.5l0,0.3c-0.1,2.8 2.2,5.1 5,5.1zm-2.4,-5.4c0,-0.2 0,-0.3 0.1,-0.5c0.2,-1.1 1.2,-1.8 2.3,-1.8l3.5,0c0.7,0 1.3,-0.6 1.3,-1.3l0,-1.4l0,-0.4c0,-1.3 1.1,-2.4 2.4,-2.4l1.9,0c1.3,0 2.4,1.1 2.4,2.4l0,0.5l0,1.3c0,0.7 0.6,1.3 1.3,1.3l3.5,0c1.1,0 2.1,0.8 2.3,1.8c0,0.2 0.1,0.3 0.1,0.5l0,0.3c0,1.3 -1.1,2.4 -2.4,2.4l-16.3,0c-1.3,0 -2.4,-1.1 -2.4,-2.4l0,-0.3z" fill="#BDC3C7"/>
  <path id="svg_5" d="m31.4,6.7c0.2,0.1 0.4,0.2 0.6,0.2s0.4,-0.1 0.6,-0.2c0.3,-0.2 0.5,-0.5 0.5,-0.9c0,-0.1 0,-0.2 -0.1,-0.3c-0.1,-0.4 -0.5,-0.8 -1,-0.8s-0.9,0.3 -1,0.8c0,0.1 -0.1,0.2 -0.1,0.3c0,0.4 0.2,0.7 0.5,0.9z" fill="#BDC3C7"/>
  <rect id="svg_7" height="2.6" width="27" fill="#BDC3C7" y="20.1" x="18.46667"/>
  <rect stroke="null" id="svg_8" height="2.6" width="27" fill="#BDC3C7" y="26.43333" x="18.46667"/>
  <rect stroke="null" id="svg_9" height="2.6" width="27" fill="#BDC3C7" y="32.60013" x="18.46667"/>
  <rect stroke="null" id="svg_10" height="3" width="27" fill="#BDC3C7" y="43.93334" x="18.46667"/>
  <rect stroke="null" id="svg_11" height="2.6" width="27" fill="#BDC3C7" y="38.26666" x="18.46667"/>
  <rect stroke="null" id="svg_12" height="2.6" width="27" fill="#BDC3C7" y="50.1" x="18.46667"/>
 </g>
 <g>
  <title>Layer 2</title>
  <g id="svg_3">
   <title>Layer 1</title>
   <path class="cls-1" d="m47.82057,57.99508l7.86186,5.53933c1.12536,0.79245 2.52096,-0.43343 2.08884,-1.82773l-2.83429,-9.08383a1.64888,1.64888 0 0 1 0.60576,-1.85254l7.55245,-5.02887c1.16322,-0.77417 0.76504,-2.7416 -0.58357,-2.89565l-9.92197,-1.10186a1.44391,1.44391 0 0 1 -1.18542,-1.02875l-3.0027,-9.31229c-0.44518,-1.38124 -2.20503,-1.38124 -2.65152,0l-3.0027,9.31229a1.44391,1.44391 0 0 1 -1.18542,1.02875l-9.92197,1.10186c-1.3486,0.15014 -1.74679,2.12147 -0.58357,2.89565l7.55245,5.02887a1.64888,1.64888 0 0 1 0.60576,1.85254l-2.85387,9.07991c-0.43604,1.39821 0.95956,2.6241 2.08884,1.82773l7.86186,-5.53933a1.29116,1.29116 0 0 1 1.50918,0.00392z" id="svg_1" fill="#fec107"/>
  </g>
 </g>
</svg> 