<svg width="64" height="64" xmlns="http://www.w3.org/2000/svg" version="1.1" xml:space="preserve" class="frm-status-completed">
 <g>
  <title>Layer 1</title>
  <path fill="#BDC3C7" d="m53.6,5.5l-7.5,0c1,1.2 1.7,2.8 1.8,4.5l3.4,0l0,49.5l-38.6,0l0,-49.5l3.4,0c0.1,-1.7 0.8,-3.3 1.8,-4.5l-7.5,0c-1.2,0 -2.2,1 -2.2,2.3l0,54c0,1.2 1,2.3 2.2,2.3l43.1,0c1.2,0 2.3,-1 2.3,-2.3l0,-54c0,-1.3 -1,-2.3 -2.2,-2.3z" id="svg_1"/>
  <path fill="#BDC3C7" d="m23.8,15.9l16.4,0c2.8,0 5.1,-2.3 5.1,-5.1l0,-0.3c0,-0.2 0,-0.3 0,-0.5c-0.2,-2.3 -2.1,-4.2 -4.4,-4.5c-0.2,0 -0.4,-0.1 -0.7,-0.1l-2.2,0l0,-0.3c0,-2.8 -2.3,-5.1 -5.1,-5.1l-1.9,0c-2.7,0 -5,2.3 -5,5.1l0,0.4l-2.2,0c-0.2,0 -0.5,0 -0.7,0.1c-2.3,0.2 -4.1,2.1 -4.3,4.4c0,0.2 0,0.3 0,0.5l0,0.3c-0.1,2.8 2.2,5.1 5,5.1zm-2.4,-5.4c0,-0.2 0,-0.3 0.1,-0.5c0.2,-1.1 1.2,-1.8 2.3,-1.8l3.5,0c0.7,0 1.3,-0.6 1.3,-1.3l0,-1.4l0,-0.4c0,-1.3 1.1,-2.4 2.4,-2.4l1.9,0c1.3,0 2.4,1.1 2.4,2.4l0,0.5l0,1.3c0,0.7 0.6,1.3 1.3,1.3l3.5,0c1.1,0 2.1,0.8 2.3,1.8c0,0.2 0.1,0.3 0.1,0.5l0,0.3c0,1.3 -1.1,2.4 -2.4,2.4l-16.3,0c-1.3,0 -2.4,-1.1 -2.4,-2.4l0,-0.3z" id="svg_2"/>
  <path fill="#BDC3C7" d="m31.4,6.7c0.2,0.1 0.4,0.2 0.6,0.2s0.4,-0.1 0.6,-0.2c0.3,-0.2 0.5,-0.5 0.5,-0.9c0,-0.1 0,-0.2 -0.1,-0.3c-0.1,-0.4 -0.5,-0.8 -1,-0.8s-0.9,0.3 -1,0.8c0,0.1 -0.1,0.2 -0.1,0.3c0,0.4 0.2,0.7 0.5,0.9z" id="svg_5"/>
  <rect x="18.46667" y="20.1" fill="#BDC3C7" width="27" height="2.6" id="svg_7"/>
  <rect x="18.46667" y="26.43333" fill="#BDC3C7" width="27" height="2.6" id="svg_8" stroke="null"/>
  <rect x="18.46667" y="32.60013" fill="#BDC3C7" width="27" height="2.6" id="svg_9" stroke="null"/>
  <rect x="18.46667" y="43.93334" fill="#BDC3C7" width="27" height="3" id="svg_10" stroke="null"/>
  <rect x="18.46667" y="38.26666" fill="#BDC3C7" width="27" height="2.6" id="svg_11" stroke="null"/>
  <rect x="18.46667" y="50.1" fill="#BDC3C7" width="27" height="2.6" id="svg_12" stroke="null"/>
 </g>
 <g>
  <title>Layer 2</title>
 </g>
</svg>