<svg version="1.1" id="Layer_1" xmlns="http://www.w3.org/2000/svg" xmlns:xlink="http://www.w3.org/1999/xlink" x="0px" y="0px"
    viewBox="0 0 64 64" width="100px" height="100px" xml:space="preserve" class="frm-status-person-accepted">

 <g>
  <title>Layer 1</title>
  <g>
   <path d="m58.73508,8.25306c-5.2,-5.2 -13.7,-5.2 -19,0c-5.2,5.2 -5.2,13.7 0,19c5.2,5.2 13.7,5.2 19,0c5.2,-5.3 5.2,-13.7 0,-19zm-1.4,7.2l-8.3,8.3c-0.6,0.6 -1.7,0.6 -2.3,0c-0.1,-0.1 -4.1,-4.2 -4.1,-4.2c-0.6,-0.6 -0.6,-1.7 0,-2.3c0.6,-0.6 1.7,-0.6 2.3,0l3,3l7.1,-7.1c0.6,-0.6 1.7,-0.6 2.3,0c0.6,0.6 0.6,1.7 0,2.3z" fill="#46C87D"/>
  </g>
  <g>
   <path d="m42.29384,31.83771c-1.7,3.9 -5,7.2 -9,7.2c-5.4,0 -9.7,-6.1 -10.1,-11.5c-0.1,-1.1 -1,-2 -2.2,-2c0,0 0,0 -0.1,0s-0.2,-0.2 -0.2,-0.4c0,-0.2 0.1,-0.3 0.2,-0.4c1,-0.5 1.5,-1.6 1.1,-2.7c-0.4,-1.3 -0.6,-2.8 -0.6,-4.2c0,-7.1 5.3,-12.8 11.9,-12.8c2,0 3.9,0.6 5.6,1.5c1,-1.1 2.1,-2.2 3.4,-3c-2.6,-1.7 -5.7,-2.8 -9,-2.8c-8.9,0 -16.2,7.7 -16.2,17.2c0,1.4 0.2,2.7 0.5,4.1c-0.7,0.9 -1.1,2 -1.1,3.1c0,1.9 1.1,3.6 2.6,4.3c1.2,7 6.8,14 14.2,14c5.8,0 10.6,-4.4 12.9,-9.6c-1.4,-0.5 -2.7,-1.2 -3.9,-2z" fill="#BDC3C7"/>
   <path d="m64.49384,56.73771c-5.8,-5.1 -12.9,-8.6 -20.5,-10.3c-0.3,-0.1 -0.6,-0.2 -0.9,-0.2l-0.7,0c-0.3,0 -0.6,0.1 -0.9,0.2c-2.2,1 -5.2,1.6 -8.2,1.6c-3.1,0 -6.1,-0.6 -8.2,-1.6c-0.3,-0.1 -0.6,-0.2 -0.9,-0.2l-0.5,0c-0.1,0 -0.3,0 -0.4,0c-8,1.7 -15.3,5.3 -21.2,10.5c-0.5,0.4 -0.8,1 -0.8,1.6l0,4.2c0,1.2 1,2.2 2.2,2.2l59.6,0c1.2,0 2.2,-1 2.2,-2.2l0,-4.2c0,-0.6 -0.3,-1.2 -0.8,-1.6zm-3.6,3.6l-55.2,0l0,-1c5.2,-4.3 11.4,-7.3 18.1,-8.8c2.7,1.2 6.1,1.8 9.6,1.8s6.9,-0.6 9.6,-1.8c6.7,1.5 12.9,4.5 18.1,8.8l0,1l-0.2,0z" fill="#BDC3C7"/>
  </g>
 </g>
</svg>