<svg version="1.1" id="Layer_1" xmlns="http://www.w3.org/2000/svg" xmlns:xlink="http://www.w3.org/1999/xlink" x="0px" y="0px"
    viewBox="0 0 64 64" width="100px" height="100px" xml:space="preserve" class="frm-status-submitted">
    <g>
        <path fill="#FF9933" d="M60,7.5c-5.2-5.2-13.7-5.2-19,0c-5.2,5.2-5.2,13.7,0,19c5.2,5.2,13.7,5.2,19,0C65.2,21.2,65.2,12.8,60,7.5z
                        "></path>
        <path fill="#FFFFFF" d="M49.729,18.864c-0.771,0-1.396-0.896-1.396-2l0,0c0-1.104,0.625-2,1.396-2h8.375
                        c0.771,0,1.396,0.896,1.396,2l0,0c0,1.104-0.625,2-1.396,2H49.729z"></path>
        <path fill="#FFFFFF" d="M52.333,17.506c0,0.75-0.896,1.358-2,1.358l0,0c-1.104,0-2-0.608-2-1.358V9.358c0-0.75,0.896-1.358,2-1.358
                        l0,0c1.104,0,2,0.608,2,1.358V17.506z"></path>
    </g>
    <path fill="#BDC3C7" d="M41,31.1c-1.7,3.9-5,7.2-9,7.2c-5.4,0-9.7-6.1-10.1-11.5c-0.1-1.1-1-2-2.2-2c0,0,0,0-0.1,0s-0.2-0.2-0.2-0.4
                c0-0.2,0.1-0.3,0.2-0.4c1-0.5,1.5-1.6,1.1-2.7c-0.4-1.3-0.6-2.8-0.6-4.2C20.1,10,25.4,4.3,32,4.3c2,0,3.9,0.6,5.6,1.5
                c1-1.1,2.1-2.2,3.4-3C38.4,1.1,35.3,0,32,0c-8.9,0-16.2,7.7-16.2,17.2c0,1.4,0.2,2.7,0.5,4.1c-0.7,0.9-1.1,2-1.1,3.1
                c0,1.9,1.1,3.6,2.6,4.3c1.2,7,6.8,14,14.2,14c5.8,0,10.6-4.4,12.9-9.6C43.5,32.6,42.2,31.9,41,31.1z"></path>

    <path fill="#BDC3C7" d="M63.2,56c-5.8-5.1-12.9-8.6-20.5-10.3c-0.3-0.1-0.6-0.2-0.9-0.2h-0.7c-0.3,0-0.6,0.1-0.9,0.2
                c-2.2,1-5.2,1.6-8.2,1.6c-3.1,0-6.1-0.6-8.2-1.6c-0.3-0.1-0.6-0.2-0.9-0.2h-0.5c-0.1,0-0.3,0-0.4,0C14,47.2,6.7,50.8,0.8,56
                C0.3,56.4,0,57,0,57.6v4.2C0,63,1,64,2.2,64h59.6c1.2,0,2.2-1,2.2-2.2v-4.2C64,57,63.7,56.4,63.2,56z M59.6,59.6H4.4v-1
                c5.2-4.3,11.4-7.3,18.1-8.8c2.7,1.2,6.1,1.8,9.6,1.8s6.9-0.6,9.6-1.8c6.7,1.5,12.9,4.5,18.1,8.8v1H59.6z"></path>
</svg>