<svg version="1.1" id="Layer_1" xmlns="http://www.w3.org/2000/svg" xmlns:xlink="http://www.w3.org/1999/xlink" x="0px" y="0px"
    viewBox="0 0 64 64" width="100px" height="100px" xml:space="preserve" class="frm-status-super-accepted">

 <g>
  <title>Layer 1</title>
  <g>
   <path d="m58.73508,8.25306c-5.2,-5.2 -13.7,-5.2 -19,0c-5.2,5.2 -5.2,13.7 0,19c5.2,5.2 13.7,5.2 19,0c5.2,-5.3 5.2,-13.7 0,-19zm-1.4,7.2l-8.3,8.3c-0.6,0.6 -1.7,0.6 -2.3,0c-0.1,-0.1 -4.1,-4.2 -4.1,-4.2c-0.6,-0.6 -0.6,-1.7 0,-2.3c0.6,-0.6 1.7,-0.6 2.3,0l3,3l7.1,-7.1c0.6,-0.6 1.7,-0.6 2.3,0c0.6,0.6 0.6,1.7 0,2.3z" fill="#46C87D"/>
  </g>
  <g/>
  <g>
   <path d="m42.33019,38.32653c0.7,0 1.3,0.1 1.9,0.3c0.5,0.2 0.8,0.8 0.8,1.6c0,0.5 0.1,1 0.3,1.5c0.2,0.5 0.8,0.7 1.6,0.7c0.5,0 0.9,-0.1 1.2,-0.3c0.3,-0.2 0.5,-0.5 0.7,-0.9c0.2,-0.3 0.3,-0.7 0.3,-1.1c0.1,-0.4 0.1,-0.8 0.1,-1.1c0,-1.3 -0.3,-2.3 -0.9,-3.1c-0.6,-0.8 -1.4,-1.5 -2.4,-1.9c-1,-0.4 -2.1,-0.7 -3.3,-0.8c-1.2,-0.1 -2.4,0 -3.6,0.3c-2.4,0.5 -4.4,0.5 -5.9,0c-1.5,-0.5 -2.2,-1.5 -2.2,-2.9c0,-0.7 -0.2,-1.2 -0.6,-1.6c-0.4,-0.4 -0.9,-0.6 -1.5,-0.6c-0.6,0 -1.1,0.2 -1.5,0.6c-0.4,0.4 -0.6,0.9 -0.6,1.6c0,1.4 -0.7,2.4 -2.2,2.9c-1.5,0.5 -3.4,0.5 -5.9,0c-1.2,-0.3 -2.4,-0.3 -3.6,-0.3c-1.2,0.1 -2.3,0.3 -3.3,0.8c-1,0.4 -1.8,1.1 -2.4,1.9c-0.6,0.8 -0.9,1.9 -0.9,3.1c0,0.3 0,0.7 0.1,1.1c0.1,0.4 0.2,0.8 0.3,1.1c0.2,0.3 0.4,0.6 0.7,0.9c0.3,0.2 0.7,0.3 1.2,0.3c0.8,0 1.4,-0.2 1.6,-0.7c0.2,-0.5 0.3,-1 0.3,-1.5c0,-0.9 0.3,-1.4 1,-1.6c0.6,-0.2 1.4,-0.3 2.2,-0.3c1,0 2,0.1 2.9,0.4c0.9,0.3 1.9,0.4 3,0.4c2.3,0 4,-0.3 5.1,-1c1.1,-0.7 1.8,-1.4 2.1,-2.4l-0.2,0c0.3,0.9 1,1.7 2.1,2.4c1.1,0.7 2.8,1 5.1,1c1,0 2.1,-0.1 3.1,-0.4c1,-0.3 2.1,-0.4 3.3,-0.4z" fill="#BDC3C7"/>
   <path d="m23.03019,9.02653c0,0.5 0.4,1 0.9,1c0,0 0,0 0,0c0.2,2.6 2.2,5.1 4.7,5.1c2.5,0 4.5,-2.6 4.7,-5.1c0,0 0,0 0,0c0.5,0 0.9,-0.4 0.9,-1c0,-0.4 -0.2,-0.7 -0.5,-0.9c0.2,-0.6 0.3,-1.2 0.3,-1.8c0,-3.1 -2.4,-5.7 -5.3,-5.7c-2.9,0 -5.3,2.5 -5.3,5.7c0,0.6 0.1,1.3 0.3,1.8c-0.5,0.1 -0.7,0.5 -0.7,0.9z" fill="#BDC3C7"/>
   <path d="m5.53019,53.42653c0,0.4 0.3,0.7 0.7,0.7c0,0 0,0 0,0c0.1,2 1.7,3.9 3.6,3.9c1.9,0 3.4,-2 3.6,-3.9c0,0 0,0 0,0c0.4,0 0.7,-0.3 0.7,-0.7c0,-0.3 -0.2,-0.6 -0.4,-0.7c0.1,-0.4 0.2,-0.9 0.2,-1.4c0,-2.4 -1.8,-4.3 -4.1,-4.3c-2.3,0 -4.1,1.9 -4.1,4.3c0,0.5 0.1,1 0.2,1.4c-0.3,0.1 -0.4,0.4 -0.4,0.7z" fill="#BDC3C7"/>
   <path d="m12.83019,59.32653c-0.1,0 -0.1,0 -0.2,0l-0.2,0c-0.1,0 -0.1,0 -0.2,0c-0.7,0.4 -1.6,0.6 -2.5,0.6c-0.9,0 -1.8,-0.2 -2.5,-0.6c-0.1,0 -0.1,0 -0.2,0l-0.1,0c0,0 -0.1,0 -0.1,0c-2.2,0.5 -4.3,1.7 -6,3.3c-0.1,0.1 -0.1,0.2 -0.1,0.3l0,1.4c0,0.1 0.2,0.3 0.4,0.3l17.3,0c0.2,0 0.4,-0.2 0.4,-0.4l0,-1.4c0,-0.1 0,-0.2 -0.1,-0.3c-1.7,-1.5 -3.7,-2.7 -5.9,-3.2z" fill="#BDC3C7"/>
   <path d="m43.33019,51.32653c0,0.5 0.1,1 0.2,1.4c-0.2,0.1 -0.4,0.4 -0.4,0.7c0,0.4 0.3,0.7 0.7,0.7c0,0 0,0 0,0c0.1,2 1.7,3.9 3.6,3.9c1.9,0 3.4,-2 3.6,-3.9c0,0 0,0 0,0c0.4,0 0.7,-0.3 0.7,-0.7c0,-0.3 -0.2,-0.6 -0.4,-0.7c0.1,-0.4 0.2,-0.9 0.2,-1.4c0,-2.4 -1.8,-4.3 -4.1,-4.3c-2.2,0 -4.1,1.9 -4.1,4.3z" fill="#BDC3C7"/>
   <path d="m56.43019,62.62653c-1.7,-1.6 -3.7,-2.8 -5.9,-3.3c-0.1,0 -0.1,0 -0.2,0l-0.2,0c-0.1,0 -0.1,0 -0.2,0c-0.7,0.4 -1.6,0.6 -2.5,0.6c-0.9,0 -1.8,-0.2 -2.5,-0.6c-0.1,0 -0.1,0 -0.2,0l-0.1,0c0,0 -0.1,0 -0.1,0c-2.2,0.5 -4.3,1.7 -6,3.3c-0.1,0.1 -0.1,0.2 -0.1,0.3l0,1.4c0,0.2 0.2,0.4 0.4,0.4l17.3,0c0.2,0 0.4,-0.2 0.4,-0.4l0,-1.4c0,-0.1 -0.1,-0.2 -0.1,-0.3z" fill="#BDC3C7"/>
   <path d="m34.23019,17.22653c-0.5,-0.2 -1.1,-0.4 -1.6,-0.5c-0.1,0 -0.2,-0.1 -0.2,-0.1l-0.3,0c-0.1,0 -0.2,0 -0.2,0.1c-0.9,0.5 -2.1,0.7 -3.3,0.7c-1.2,0 -2.4,-0.3 -3.3,-0.7c-0.1,0 -0.2,-0.1 -0.2,-0.1l-0.2,0c0,0 -0.1,0 -0.1,0c-2.9,0.7 -5.7,2.2 -7.9,4.4c-0.1,0.1 -0.2,0.2 -0.2,0.4l0,1.8c0,0.3 0.2,0.5 0.5,0.5l18.1,0c-0.8,-2.2 -1.1,-4.4 -1.1,-6.5z" fill="#BDC3C7"/>
  </g>
 </g>
</svg>