<svg version="1.1" id="Layer_1" xmlns="http://www.w3.org/2000/svg" xmlns:xlink="http://www.w3.org/1999/xlink" x="0px" y="0px"
    viewBox="0 0 64 64" width="100px" height="100px" xml:space="preserve" class="frm-status-super-rejected">

    <path fill="#D7574A" d="M60,7.5c-5.2-5.2-13.7-5.2-19,0c-5.2,5.2-5.2,13.7,0,19c5.2,5.2,13.7,5.2,19,0C65.2,21.2,65.2,12.8,60,7.5z
                    M55.9,22.4c-0.6,0.6-1.6,0.6-2.2,0l-3.1-3.1l-3.1,3.1c-0.6,0.6-1.6,0.6-2.2,0c-0.6-0.6-0.6-1.6,0-2.2l3.1-3.1L45.3,14
                c-0.6-0.6-0.6-1.6,0-2.2c0.6-0.6,1.6-0.6,2.2,0l3.1,3.1l3.1-3.1c0.6-0.6,1.6-0.6,2.2,0c0.6,0.6,0.6,1.6,0,2.2l-3.2,3l3.1,3.1
                C56.5,20.8,56.5,21.7,55.9,22.4z"></path>
    <path fill="#BDC3C7" d="M41.6,37.7c0.7,0,1.3,0.1,1.9,0.3c0.5,0.2,0.8,0.8,0.8,1.6c0,0.5,0.1,1,0.3,1.5c0.2,0.5,0.8,0.7,1.6,0.7
                c0.5,0,0.9-0.1,1.2-0.3c0.3-0.2,0.5-0.5,0.7-0.9c0.2-0.3,0.3-0.7,0.3-1.1c0.1-0.4,0.1-0.8,0.1-1.1c0-1.3-0.3-2.3-0.9-3.1
                c-0.6-0.8-1.4-1.5-2.4-1.9c-1-0.4-2.1-0.7-3.3-0.8c-1.2-0.1-2.4,0-3.6,0.3c-2.4,0.5-4.4,0.5-5.9,0c-1.5-0.5-2.2-1.5-2.2-2.9
                c0-0.7-0.2-1.2-0.6-1.6c-0.4-0.4-0.9-0.6-1.5-0.6c-0.6,0-1.1,0.2-1.5,0.6c-0.4,0.4-0.6,0.9-0.6,1.6c0,1.4-0.7,2.4-2.2,2.9
                c-1.5,0.5-3.4,0.5-5.9,0c-1.2-0.3-2.4-0.3-3.6-0.3c-1.2,0.1-2.3,0.3-3.3,0.8c-1,0.4-1.8,1.1-2.4,1.9c-0.6,0.8-0.9,1.9-0.9,3.1
                c0,0.3,0,0.7,0.1,1.1c0.1,0.4,0.2,0.8,0.3,1.1c0.2,0.3,0.4,0.6,0.7,0.9c0.3,0.2,0.7,0.3,1.2,0.3c0.8,0,1.4-0.2,1.6-0.7
                c0.2-0.5,0.3-1,0.3-1.5c0-0.9,0.3-1.4,1-1.6c0.6-0.2,1.4-0.3,2.2-0.3c1,0,2,0.1,2.9,0.4c0.9,0.3,1.9,0.4,3,0.4c2.3,0,4-0.3,5.1-1
                c1.1-0.7,1.8-1.4,2.1-2.4H28c0.3,0.9,1,1.7,2.1,2.4c1.1,0.7,2.8,1,5.1,1c1,0,2.1-0.1,3.1-0.4C39.3,37.8,40.4,37.7,41.6,37.7z"></path>
    <path fill="#BDC3C7" d="M22.3,8.4c0,0.5,0.4,1,0.9,1c0,0,0,0,0,0c0.2,2.6,2.2,5.1,4.7,5.1c2.5,0,4.5-2.6,4.7-5.1c0,0,0,0,0,0
                c0.5,0,0.9-0.4,0.9-1c0-0.4-0.2-0.7-0.5-0.9c0.2-0.6,0.3-1.2,0.3-1.8c0-3.1-2.4-5.7-5.3-5.7c-2.9,0-5.3,2.5-5.3,5.7
                c0,0.6,0.1,1.3,0.3,1.8C22.5,7.6,22.3,8,22.3,8.4z"></path>
    <path fill="#BDC3C7" d="M4.8,52.8c0,0.4,0.3,0.7,0.7,0.7c0,0,0,0,0,0c0.1,2,1.7,3.9,3.6,3.9c1.9,0,3.4-2,3.6-3.9c0,0,0,0,0,0
                c0.4,0,0.7-0.3,0.7-0.7c0-0.3-0.2-0.6-0.4-0.7c0.1-0.4,0.2-0.9,0.2-1.4c0-2.4-1.8-4.3-4.1-4.3c-2.3,0-4.1,1.9-4.1,4.3
                c0,0.5,0.1,1,0.2,1.4C4.9,52.2,4.8,52.5,4.8,52.8z"></path>
    <path fill="#BDC3C7" d="M12.1,58.7c-0.1,0-0.1,0-0.2,0h-0.2c-0.1,0-0.1,0-0.2,0c-0.7,0.4-1.6,0.6-2.5,0.6c-0.9,0-1.8-0.2-2.5-0.6
                c-0.1,0-0.1,0-0.2,0H6.2c0,0-0.1,0-0.1,0c-2.2,0.5-4.3,1.7-6,3.3C0,62.1,0,62.2,0,62.3v1.4C0,63.8,0.2,64,0.4,64h17.3
                c0.2,0,0.4-0.2,0.4-0.4v-1.4c0-0.1,0-0.2-0.1-0.3C16.3,60.4,14.3,59.2,12.1,58.7z"></path>
    <path fill="#BDC3C7" d="M42.6,50.7c0,0.5,0.1,1,0.2,1.4c-0.2,0.1-0.4,0.4-0.4,0.7c0,0.4,0.3,0.7,0.7,0.7c0,0,0,0,0,0
                c0.1,2,1.7,3.9,3.6,3.9c1.9,0,3.4-2,3.6-3.9c0,0,0,0,0,0c0.4,0,0.7-0.3,0.7-0.7c0-0.3-0.2-0.6-0.4-0.7c0.1-0.4,0.2-0.9,0.2-1.4
                c0-2.4-1.8-4.3-4.1-4.3C44.5,46.4,42.6,48.3,42.6,50.7z"></path>
    <path fill="#BDC3C7" d="M55.7,62c-1.7-1.6-3.7-2.8-5.9-3.3c-0.1,0-0.1,0-0.2,0h-0.2c-0.1,0-0.1,0-0.2,0c-0.7,0.4-1.6,0.6-2.5,0.6
                c-0.9,0-1.8-0.2-2.5-0.6c-0.1,0-0.1,0-0.2,0h-0.1c0,0-0.1,0-0.1,0c-2.2,0.5-4.3,1.7-6,3.3c-0.1,0.1-0.1,0.2-0.1,0.3v1.4
                c0,0.2,0.2,0.4,0.4,0.4h17.3c0.2,0,0.4-0.2,0.4-0.4v-1.4C55.8,62.2,55.7,62.1,55.7,62z"></path>
    <path fill="#BDC3C7" d="M33.5,16.6c-0.5-0.2-1.1-0.4-1.6-0.5c-0.1,0-0.2-0.1-0.2-0.1h-0.3c-0.1,0-0.2,0-0.2,0.1
                c-0.9,0.5-2.1,0.7-3.3,0.7c-1.2,0-2.4-0.3-3.3-0.7c-0.1,0-0.2-0.1-0.2-0.1h-0.2c0,0-0.1,0-0.1,0c-2.9,0.7-5.7,2.2-7.9,4.4
                c-0.1,0.1-0.2,0.2-0.2,0.4v1.8c0,0.3,0.2,0.5,0.5,0.5h18.1C33.8,20.9,33.5,18.7,33.5,16.6z"></path>

</svg>